<svg width="710" height="497" viewBox="0 0 710 497" fill="none" xmlns="http://www.w3.org/2000/svg">
<g id="Group 2">
<rect id="Rectangle" x="197" y="145" width="1000" height="352" rx="176" fill="#5267DF"/>
<g id="Group 40">
<g id="Group 52">
<g id="Rectangle Copy 3" filter="url(#filter0_d_0_1343)">
<rect x="40.5" y="10.5" width="578.62" height="385" rx="26" fill="#777777"/>
</g>
<rect id="Rectangle Copy 5" x="42.5021" y="12.5" width="574.846" height="381.865" rx="25" fill="url(#paint0_linear_0_1343)"/>
<g id="GoViral - Wordpress Theme">
<rect id="Mask Copy" opacity="0.1" x="94.5884" y="26.8029" width="471.968" height="353.756" rx="5" fill="#2A2A2A"/>
<rect id="Mask" x="61.553" y="29.8029" width="536.575" height="346" rx="8" fill="#E8EAF6"/>
<mask id="mask0_0_1343" style="mask-type:luminance" maskUnits="userSpaceOnUse" x="61" y="29" width="538" height="347">
<rect id="Mask_2" x="61.553" y="29.8029" width="536.575" height="346" rx="8" fill="white"/>
</mask>
<g mask="url(#mask0_0_1343)">
<g id="Group 28">
<rect id="Rectangle_2" x="58.0187" y="30" width="547.586" height="59" fill="#5267DF"/>
<g id="Group 7">
<ellipse id="Oval" opacity="0.244768" cx="100.064" cy="60" rx="16.0172" ry="16" fill="white"/>
<ellipse id="Oval Copy" opacity="0.104399" cx="561.558" cy="60" rx="16.0172" ry="16" fill="white"/>
<g id="Group 6">
<rect id="Rectangle_3" opacity="0.75" x="131.097" y="50" width="120.129" height="6" rx="3" fill="white"/>
<rect id="Rectangle Copy 6" opacity="0.25" x="131.097" y="64" width="64.0686" height="6" rx="3" fill="white"/>
</g>
</g>
</g>
<g id="Group 26">
<rect id="Rectangle_4" x="118.614" y="122.803" width="261.28" height="316" rx="8" fill="white"/>
<rect id="Rectangle Copy 7" x="413.93" y="122.803" width="128.137" height="316" rx="8" fill="white"/>
<rect id="Rectangle_5" opacity="0.5" x="197.168" y="161" width="120.129" height="6" rx="3" fill="#242A45"/>
</g>
</g>
</g>
</g>
</g>
<g id="Group 29">
<ellipse id="Oval_2" cx="166.135" cy="171" rx="16.0172" ry="16" fill="#F98E5D"/>
<rect id="Rectangle_6" opacity="0.25" x="434.422" y="145" width="88.0943" height="6" rx="3" fill="#242A45"/>
<rect id="Rectangle Copy 8" opacity="0.25" x="434.422" y="165" width="88.0943" height="6" rx="3" fill="#242A45"/>
<rect id="Rectangle Copy 9" opacity="0.25" x="434.422" y="185" width="88.0943" height="6" rx="3" fill="#242A45"/>
<rect id="Rectangle Copy 10" opacity="0.25" x="434.422" y="205" width="88.0943" height="6" rx="3" fill="#242A45"/>
<rect id="Rectangle Copy 11" opacity="0.25" x="434.422" y="239" width="88.0943" height="6" rx="3" fill="#242A45"/>
<rect id="Rectangle Copy 12" opacity="0.25" x="434.422" y="259" width="88.0943" height="6" rx="3" fill="#242A45"/>
<rect id="Rectangle Copy 13" opacity="0.25" x="434.422" y="279" width="88.0943" height="6" rx="3" fill="#242A45"/>
<rect id="Rectangle Copy 6_2" opacity="0.25" x="197.168" y="175" width="64.0686" height="6" rx="3" fill="#242A45"/>
</g>
<g id="Group 29 Copy">
<ellipse id="Oval_3" cx="166.135" cy="227" rx="16.0172" ry="16" fill="#6AC6D6"/>
<rect id="Rectangle_7" opacity="0.5" x="197.168" y="217" width="120.129" height="6" rx="3" fill="#242A45"/>
<rect id="Rectangle Copy 6_3" opacity="0.25" x="197.168" y="231" width="64.0686" height="6" rx="3" fill="#242A45"/>
</g>
<g id="Group 29 Copy 2">
<ellipse id="Oval_4" cx="166.135" cy="283" rx="16.0172" ry="16" fill="#A47ED4"/>
<rect id="Rectangle_8" opacity="0.5" x="197.168" y="273" width="120.129" height="6" rx="3" fill="#242A45"/>
<rect id="Rectangle Copy 6_4" opacity="0.25" x="197.168" y="287" width="64.0686" height="6" rx="3" fill="#242A45"/>
</g>
<g id="Group 29 Copy 3">
<ellipse id="Oval_5" cx="166.135" cy="339" rx="16.0172" ry="16" fill="#EC7878"/>
<rect id="Rectangle_9" opacity="0.5" x="197.168" y="329" width="120.129" height="6" rx="3" fill="#242A45"/>
<rect id="Rectangle Copy 6_5" opacity="0.25" x="197.168" y="343" width="64.0686" height="6" rx="3" fill="#242A45"/>
</g>
</g>
<defs>
<filter id="filter0_d_0_1343" x="0.5" y="0.5" width="658.62" height="465" filterUnits="userSpaceOnUse" color-interpolation-filters="sRGB">
<feFlood flood-opacity="0" result="BackgroundImageFix"/>
<feColorMatrix in="SourceAlpha" type="matrix" values="0 0 0 0 0 0 0 0 0 0 0 0 0 0 0 0 0 0 127 0" result="hardAlpha"/>
<feOffset dy="30"/>
<feGaussianBlur stdDeviation="20"/>
<feColorMatrix type="matrix" values="0 0 0 0 0.182433 0 0 0 0 0.230633 0 0 0 0 0.506058 0 0 0 0.20012 0"/>
<feBlend mode="normal" in2="BackgroundImageFix" result="effect1_dropShadow_0_1343"/>
<feBlend mode="normal" in="SourceGraphic" in2="effect1_dropShadow_0_1343" result="shape"/>
</filter>
<linearGradient id="paint0_linear_0_1343" x1="888.95" y1="206.406" x2="549.374" y2="-304.78" gradientUnits="userSpaceOnUse">
<stop stop-color="#151515"/>
<stop offset="1" stop-color="#3D3D3D"/>
</linearGradient>
</defs>
</svg>
