<svg xmlns="http://www.w3.org/2000/svg" width="658" height="465" fill="none"><g filter="url(#a)"><rect width="578" height="385" x="40" y="10" fill="#777" rx="26"/></g><rect width="574.23" height="381.865" x="42" y="12" fill="url(#b)" rx="25"/><rect width="471.463" height="353.756" x="94.03" y="26.303" fill="#2A2A2A" opacity=".1" rx="5"/><rect width="536" height="346" x="61.03" y="29.303" fill="#E8EAF6" rx="8"/><mask id="c" width="537" height="347" x="61" y="29" maskUnits="userSpaceOnUse" style="mask-type:luminance"><rect width="536" height="346" x="61.03" y="29.303" fill="#fff" rx="8"/></mask><g mask="url(#c)"><path fill="#5267DF" d="M57.5 29.5h547v59h-547z"/><g fill="#fff"><circle cx="99.5" cy="59.5" r="16" opacity=".245"/><circle cx="560.5" cy="59.5" r="16" opacity=".104"/><rect width="120" height="6" x="130.5" y="49.5" opacity=".75" rx="3"/><rect width="64" height="6" x="130.5" y="63.5" opacity=".25" rx="3"/></g><rect width="261" height="316" x="118.03" y="122.303" fill="#fff" rx="8"/><rect width="128" height="316" x="413.03" y="122.303" fill="#fff" rx="8"/><rect width="120" height="6" x="196.5" y="160.5" fill="#242A45" opacity=".5" rx="3"/></g><circle cx="165.5" cy="170.5" r="16" fill="#F98E5D"/><rect width="88" height="6" x="433.5" y="144.5" fill="#242A45" opacity=".25" rx="3"/><rect width="88" height="6" x="433.5" y="164.5" fill="#242A45" opacity=".25" rx="3"/><rect width="88" height="6" x="433.5" y="184.5" fill="#242A45" opacity=".25" rx="3"/><rect width="88" height="6" x="433.5" y="204.5" fill="#242A45" opacity=".25" rx="3"/><rect width="88" height="6" x="433.5" y="238.5" fill="#242A45" opacity=".25" rx="3"/><rect width="88" height="6" x="433.5" y="258.5" fill="#242A45" opacity=".25" rx="3"/><rect width="88" height="6" x="433.5" y="278.5" fill="#242A45" opacity=".25" rx="3"/><rect width="64" height="6" x="196.5" y="174.5" fill="#242A45" opacity=".25" rx="3"/><circle cx="165.5" cy="226.5" r="16" fill="#6AC6D6"/><rect width="120" height="6" x="196.5" y="216.5" fill="#242A45" opacity=".5" rx="3"/><rect width="64" height="6" x="196.5" y="230.5" fill="#242A45" opacity=".25" rx="3"/><circle cx="165.5" cy="282.5" r="16" fill="#A47ED4"/><rect width="120" height="6" x="196.5" y="272.5" fill="#242A45" opacity=".5" rx="3"/><rect width="64" height="6" x="196.5" y="286.5" fill="#242A45" opacity=".25" rx="3"/><circle cx="165.5" cy="338.5" r="16" fill="#EC7878"/><rect width="120" height="6" x="196.5" y="328.5" fill="#242A45" opacity=".5" rx="3"/><rect width="64" height="6" x="196.5" y="342.5" fill="#242A45" opacity=".25" rx="3"/><defs><linearGradient id="b" x1="887.542" x2="547.825" y1="205.906" y2="-304.944" gradientUnits="userSpaceOnUse"><stop stop-color="#151515"/><stop offset="1" stop-color="#3D3D3D"/></linearGradient><filter id="a" width="658" height="465" x="0" y="0" color-interpolation-filters="sRGB" filterUnits="userSpaceOnUse"><feFlood flood-opacity="0" result="BackgroundImageFix"/><feColorMatrix in="SourceAlpha" result="hardAlpha" values="0 0 0 0 0 0 0 0 0 0 0 0 0 0 0 0 0 0 127 0"/><feOffset dy="30"/><feGaussianBlur stdDeviation="20"/><feColorMatrix values="0 0 0 0 0.182433 0 0 0 0 0.230633 0 0 0 0 0.506058 0 0 0 0.20012 0"/><feBlend in2="BackgroundImageFix" result="effect1_dropShadow_0_1343"/><feBlend in="SourceGraphic" in2="effect1_dropShadow_0_1343" result="shape"/></filter></defs></svg>