<svg xmlns="http://www.w3.org/2000/svg" width="285" height="5" fill="none"><path fill="#495DCF" fill-opacity=".2" fill-rule="evenodd" d="M4.5 2.61a2 2 0 1 1-4 0 2 2 0 0 1 4 0Zm280 0a2 2 0 1 1-4 .001 2 2 0 0 1 4 0Zm-19 2a2 2 0 1 0 0-3.999 2 2 0 0 0 0 4Zm-33-2a2 2 0 1 1-4 .001 2 2 0 0 1 4 0Zm-37 2a2 2 0 1 0 0-3.999 2 2 0 0 0 0 4Zm-33-2a2 2 0 1 1-4 .001 2 2 0 0 1 4 0Zm-20 2a2 2 0 1 0 0-3.999 2 2 0 0 0 0 4Zm-15-2a2 2 0 1 1-4 .001 2 2 0 0 1 4 0Zm120 2a2 2 0 1 0 0-3.999 2 2 0 0 0 0 4Zm-33-2a2 2 0 1 1-4 .001 2 2 0 0 1 4 0Zm-37 2a2 2 0 1 0 0-3.999 2 2 0 0 0 0 4Zm-68-2a2 2 0 1 1-4 .001 2 2 0 0 1 4 0Zm-19 2a2 2 0 1 0 0-4 2 2 0 0 0 0 4Zm-16-2a2 2 0 1 1-4 0 2 2 0 0 1 4 0Zm-19 2a2 2 0 1 0 0-4 2 2 0 0 0 0 4Zm-16-2a2 2 0 1 1-4 0 2 2 0 0 1 4 0Zm-19 2a2 2 0 1 0 0-4 2 2 0 0 0 0 4Z" clip-rule="evenodd"/></svg>